<?xml version="1.0" encoding="UTF-8"?>
<svg width="1200pt" height="1200pt" version="1.1" viewBox="0 0 1200 1200" xmlns="http://www.w3.org/2000/svg">
 <path d="m591.24 179.34c-27.281-63.141-65.062-90.047-65.062-90.047-8.3438-6.0938-20.062-4.3125-26.156 4.0312s-4.3125 20.109 4.0312 26.203c0 0 71.016 53.531 76.828 186.14-8.3438-1.4062-16.594-3.7969-24.516-7.125-0.09375 0-0.09375-0.046875-0.14062-0.046875-45.047-18.422-92.812-25.781-140.9-19.922-184.5 22.406-308.16 233.39-272.16 473.02 35.906 238.97 216.79 412.5 400.78 390.14 12.094-1.5 23.906-3.75 35.438-6.75h0.09375c13.453-3.6094 27.656-3.6094 41.156-0.046875 11.531 3.0469 23.344 5.2969 35.484 6.7969 184.03 22.359 364.87-151.18 400.78-390.14 36-239.63-87.656-450.61-272.16-473.02-48.094-5.8594-95.906 1.5-140.9 19.828-0.09375 0.046875-0.09375 0.09375-0.14062 0.09375-8.1562 3.4219-16.641 5.8125-25.219 7.2188-0.46875-12.047-1.4062-23.531-2.7656-34.5 90.141-3.8438 147.84-32.578 184.97-65.906 62.109-55.734 67.688-125.58 67.688-125.58 0.89062-10.078-6.375-19.031-16.406-20.25-111.52-13.312-177.37 15.516-216.66 53.297-21.562 20.719-35.25 44.484-43.969 66.469zm358.69 424.03c7.7344 42.703 8.5781 89.016 1.4062 136.69-1.5469 10.219 5.5312 19.781 15.75 21.328s19.781-5.5312 21.328-15.75c7.7812-51.984 6.8438-102.42-1.5938-148.97-1.8281-10.219-11.625-16.969-21.797-15.094-10.219 1.8281-16.969 11.578-15.094 21.797zm-198.19-223.03c80.438 9.7969 143.9 69.047 177.66 151.78 3.9375 9.5625 14.906 14.156 24.469 10.266 9.6094-3.8906 14.156-14.859 10.266-24.469-39.234-96.141-114.33-163.45-207.84-174.84-10.266-1.2188-19.641 6.0938-20.906 16.359-1.2188 10.266 6.0938 19.641 16.359 20.906z" fill-rule="evenodd"/>
</svg>
