<?xml version="1.0" encoding="UTF-8"?>
<svg width="1200pt" height="1200pt" version="1.1" viewBox="0 0 1200 1200" xmlns="http://www.w3.org/2000/svg">
 <path d="m586.03 193.97c-26.344-78.516-59.109-104.11-59.109-104.11-7.9688-6.5625-19.828-5.3438-26.344 2.6719-6.5625 8.0156-5.3438 19.828 2.6719 26.391 0 0 49.547 42.422 69.656 185.11-5.625-1.4062-11.156-3.2344-16.594-5.4844-0.09375 0-0.09375-0.046875-0.14062-0.046875-45.047-18.422-92.812-25.781-140.9-19.922-184.5 22.406-308.16 233.39-272.16 473.02 35.906 238.97 216.79 412.5 400.78 390.14 12.094-1.5 23.906-3.75 35.438-6.75h0.09375c13.453-3.6094 27.656-3.6094 41.156-0.046876 11.531 3.0469 23.344 5.2969 35.484 6.7969 184.03 22.359 364.87-151.18 400.78-390.14 36-239.63-87.656-450.61-272.16-473.02-48.094-5.8594-95.906 1.5-140.9 19.828-0.09375 0.046875-0.09375 0.09375-0.14063 0.09375-10.5 4.4062-21.469 7.125-32.578 8.2031-1.5938-12.328-3.4688-24.094-5.4375-35.156 95.906-2.0625 156.47-31.688 194.95-66.234 62.109-55.734 67.688-125.58 67.688-125.58 0.89063-10.078-6.375-19.031-16.406-20.25-111.52-13.312-177.37 15.516-216.66 53.297-26.484 25.406-41.062 55.406-49.125 81.141zm-8.625 149.16c-12.094-1.8281-23.953-5.1562-35.391-9.8438-39.094-15.984-80.484-22.5-122.26-17.391-166.4 20.203-272.06 213.98-239.53 430.22 32.578 216.84 192.28 378.79 359.16 358.5 10.406-1.2656 20.578-3.2344 30.469-5.7656 19.781-5.25 40.547-5.25 60.281-0.046874 9.9375 2.5781 20.109 4.5469 30.469 5.8125 166.92 20.297 326.58-141.66 359.16-358.5 32.531-216.24-73.125-409.97-239.53-430.22-41.766-5.1094-83.156 1.4062-122.29 17.344-13.781 5.7656-28.219 9.375-42.844 10.828 2.0156 23.438 3.2812 48.844 3.6094 76.406 12.562-4.0781 25.031-12.422 37.734-24.562 7.5-7.1719 19.359-6.8906 26.531 0.5625s6.9375 19.359-0.5625 26.531c-27.375 26.25-55.125 38.156-82.5 37.969h-0.046875c-27.234-0.23438-54.844-12.469-82.031-37.781-7.5938-7.0312-8.0156-18.891-0.98438-26.484s18.938-8.0156 26.531-0.98438c12.703 11.812 25.266 20.156 37.875 24.422-0.32812-28.031-1.6875-53.578-3.7969-76.969zm249.71-248.34c-5.6719 20.203-19.359 53.719-51.609 82.688-32.203 28.922-82.547 52.781-160.36 56.297 3.2344-22.969 13.5-62.719 45.984-93.891 31.219-30 82.5-51.234 165.98-45.094z" fill-rule="evenodd"/>
</svg>
